<svg xmlns="http://www.w3.org/2000/svg" xmlns:xlink="http://www.w3.org/1999/xlink" width="87" height="98" version="1.1" viewBox="0 0 87 98"><title>Group</title><desc>Created with Sketch.</desc><g id="Page-1" fill="none" fill-rule="evenodd" stroke="none" stroke-width="1"><g id="1" fill="#232B2B" transform="translate(-50.000000, -55.000000)"><g id="Group" transform="translate(50.000000, 55.000000)"><polygon id="Fill-1" points="2.481 22.231 2.481 13.66 83.128 13.646 83.144 22.217"/><polygon id="Fill-2" points="82.416 57.203 81.925 72.062 81.855 82.071 80.481 82.468 75.685 82.468 74.243 82.071 73.677 72.062 73.19 57.288 73.19 45.375 73.677 32.909 74.113 25.241 75.111 24.81 80.481 24.81 81.44 25.283 81.913 32.909 82.416 45.294"/><polygon id="Fill-3" points="60.084 57.212 59.612 72.066 59.524 82.075 58.167 82.467 53.356 82.467 51.906 82.075 51.333 72.066 50.861 57.297 50.861 45.384 51.333 32.913 51.784 25.249 52.783 24.81 58.152 24.81 59.113 25.292 59.601 32.908 60.084 45.293"/><polygon id="Fill-4" points="34.021 57.212 33.541 72.066 33.463 82.07 32.107 82.467 27.298 82.472 25.854 82.075 25.295 72.066 24.81 57.297 24.81 45.379 25.288 32.908 25.724 25.249 26.73 24.81 32.092 24.81 33.053 25.287 33.535 32.908 34.021 45.298"/><polygon id="Fill-5" points="12.945 57.203 12.459 72.057 12.384 82.066 11.025 82.463 6.216 82.463 4.774 82.071 4.209 72.057 3.722 57.288 3.722 45.379 4.206 32.909 4.645 25.241 5.644 24.81 11.018 24.81 11.977 25.283 12.454 32.909 12.938 45.289"/><polygon id="Fill-6" points="2.481 85.614 83.142 85.595 83.142 91.316 2.481 91.335"/><polygon id="Fill-7" points="82.312 12.462 1.684 12.477 0 9.536 41.994 0 83.991 9.516"/><polygon id="Fill-8" points="86.461 97.331 0 97.345 0 93.052 86.461 93.038"/></g></g></g></svg>